<svg width="40" height="40" fill="none" xmlns="http://www.w3.org/2000/svg"><circle cx="20" cy="20" r="19.5" stroke="#BEC2C3"/><path d="M16.341 18.7c.03-.397.377-.696.542-.817a.09.09 0 00.01-.136l-3.243-3.266a.09.09 0 00-.137.012c-.068.097-.13.199-.188.306-.488.907-.281 2.292-.281 2.292.482 3.218 3.7 6.194 3.7 6.194s2.976 3.217 6.193 3.7c0 0 1.386.207 2.293-.282.106-.057.208-.12.306-.187a.09.09 0 00.011-.138c-.453-.452-2.809-2.79-3.266-3.243a.09.09 0 00-.136.01c-.12.166-.42.511-.817.542-.726.056-1.922-.556-3.177-1.81-1.074-1.074-1.866-2.45-1.81-3.177zM13.9 14.048l3.421 3.422a.09.09 0 00.128 0c.184-.182.697-.695.697-.695.336-.335.376-.839.04-1.174l-2.35-2.351a.858.858 0 00-1.136-.066 5.89 5.89 0 00-.805.739.092.092 0 00.005.125zm12.205 12.086a5.89 5.89 0 00.74-.806.858.858 0 00-.066-1.136l-2.351-2.35c-.336-.336-.84-.296-1.175.04l-.695.697a.09.09 0 000 .128l3.422 3.422c.034.034.09.036.125.005z" fill="#8D9293"/></svg>