<svg width="46" height="46" fill="none" xmlns="http://www.w3.org/2000/svg"><path d="M25.555 21.362l-3.163-.702c-1.203-.274-2.588-.637-2.588-1.77 0-1.137.971-1.932 2.725-1.932 3.534 0 3.212 2.43 4.966 2.43.924 0 1.732-.544 1.732-1.477 0-2.179-3.486-3.813-6.444-3.813-3.21 0-6.63 1.363-6.63 4.994 0 1.75.625 3.61 4.067 4.473l4.273 1.066c1.293.32 1.617 1.047 1.617 1.703 0 1.091-1.084 2.158-3.048 2.158-3.837 0-3.304-2.953-5.36-2.953-.924 0-1.594.637-1.594 1.545 0 1.77 2.15 4.132 6.954 4.132 4.57 0 6.836-2.203 6.836-5.154 0-1.905-.879-3.928-4.343-4.7z" fill="#03A9F4"/><path d="M23 0C10.3 0 0 10.3 0 23s10.3 23 23 23 23-10.3 23-23S35.7 0 23 0zm11.975 34.94a7.947 7.947 0 01-5.66 2.345 8 8 0 01-3.939-1.038c-.777.138-1.573.211-2.368.211-1.826 0-3.597-.358-5.264-1.064a13.448 13.448 0 01-4.3-2.898 13.465 13.465 0 01-2.897-4.298 13.426 13.426 0 01-1.063-5.264c0-.782.07-1.565.204-2.331A7.996 7.996 0 018.68 16.72c0-2.138.834-4.149 2.345-5.66a7.952 7.952 0 015.661-2.346c1.31 0 2.604.327 3.755.938h.006c.839-.162 1.7-.243 2.561-.243a13.478 13.478 0 019.561 3.96 13.468 13.468 0 012.899 4.3 13.424 13.424 0 011.063 5.264 13.6 13.6 0 01-.225 2.451 8.005 8.005 0 011.014 3.895 7.95 7.95 0 01-2.345 5.66z" fill="#03A9F4"/></svg>