<svg width="46" height="46" fill="none" xmlns="http://www.w3.org/2000/svg"><circle cx="23" cy="23" r="23" fill="#7B519D"/><path d="M29.555 21.751c.024-2.762-2.392-5.294-5.385-5.644a4.476 4.476 0 01-.193-.028 2.873 2.873 0 00-.456-.049c-.613 0-.777.42-.82.67-.042.244-.002.448.119.608.203.269.56.317.847.355.084.011.164.022.23.036 2.69.586 3.595 1.506 4.038 4.102.01.064.015.142.02.225.02.31.06.956.773.956.06 0 .123-.005.19-.015.663-.098.643-.689.633-.972-.003-.08-.006-.156.001-.206a.271.271 0 00.003-.038z" fill="#fff"/><path d="M23.347 15.094c.08.006.155.011.218.02 4.416.662 6.447 2.7 7.01 7.033.009.074.01.164.012.259.006.338.017 1.043.794 1.057h.024c.244 0 .438-.07.576-.212.242-.247.225-.612.212-.907a2.872 2.872 0 01-.006-.2c.056-4.431-3.884-8.45-8.432-8.6-.018 0-.037 0-.055.003a.388.388 0 01-.053.002c-.046 0-.102-.003-.16-.007a3.403 3.403 0 00-.236-.01c-.724 0-.861.5-.88.8-.04.69.646.739.976.762zm7.015 12.655c-.094-.07-.191-.142-.282-.213a26.952 26.952 0 00-1.491-1.064l-.309-.21c-.635-.434-1.207-.645-1.746-.645-.727 0-1.361.391-1.884 1.162-.232.342-.513.509-.86.509-.204 0-.437-.057-.692-.17-2.05-.905-3.515-2.294-4.353-4.127-.405-.886-.273-1.465.44-1.937.404-.267 1.157-.765 1.104-1.718-.06-1.083-2.514-4.34-3.548-4.71a2.065 2.065 0 00-1.369-.004c-1.188.389-2.04 1.072-2.466 1.975-.41.873-.392 1.898.054 2.964 1.29 3.082 3.102 5.77 5.388 7.987 2.237 2.17 4.987 3.949 8.173 5.285.287.12.589.186.809.233.075.017.14.03.187.043a.303.303 0 00.08.011h.024c1.499 0 3.298-1.333 3.85-2.853.485-1.331-.399-1.99-1.11-2.518zm-6.351-9.134c-.256.006-.79.02-.978.549-.087.247-.077.462.032.638.159.26.463.338.74.382 1.006.157 1.522.698 1.625 1.703.048.469.372.796.788.796a.742.742 0 00.094-.006c.5-.057.743-.415.72-1.063.009-.677-.355-1.445-.973-2.056-.62-.613-1.368-.959-2.048-.943z" fill="#fff"/></svg>