<svg width="46" height="46" fill="none" xmlns="http://www.w3.org/2000/svg"><circle cx="23" cy="23" r="23" fill="#4A76A8"/><path d="M35.415 29.663a1.73 1.73 0 00-.086-.166c-.442-.794-1.285-1.77-2.53-2.926l-.026-.026-.013-.013-.013-.014h-.013c-.565-.538-.923-.9-1.073-1.085-.274-.354-.335-.71-.185-1.073.105-.274.503-.851 1.191-1.734.362-.468.65-.843.86-1.126 1.528-2.03 2.19-3.327 1.987-3.892l-.079-.132c-.053-.08-.19-.152-.41-.219-.221-.066-.503-.077-.848-.033l-3.813.026a.496.496 0 00-.265.007l-.172.04-.066.033-.053.04a.588.588 0 00-.146.139.912.912 0 00-.132.232 21.614 21.614 0 01-1.417 2.979 28.218 28.218 0 01-.9 1.423c-.274.401-.503.697-.688.887a4.79 4.79 0 01-.504.457c-.15.115-.264.163-.344.145a9.061 9.061 0 01-.225-.053.88.88 0 01-.298-.324 1.45 1.45 0 01-.152-.517 5.722 5.722 0 01-.046-.536c-.005-.15-.003-.362.006-.635.01-.274.014-.46.014-.556 0-.336.006-.7.02-1.093.013-.392.023-.704.032-.933.01-.23.014-.472.014-.728s-.016-.457-.047-.603a2.061 2.061 0 00-.138-.423.713.713 0 00-.272-.318 1.529 1.529 0 00-.443-.179c-.468-.106-1.064-.163-1.788-.172-1.642-.018-2.697.088-3.164.318-.186.097-.353.23-.503.397-.16.194-.181.3-.067.318.53.079.905.269 1.126.569l.08.159c.061.115.123.318.185.609.061.291.101.613.119.966a10.32 10.32 0 010 1.655c-.044.46-.086.817-.126 1.073-.04.256-.1.463-.179.622a2.62 2.62 0 01-.159.291.228.228 0 01-.066.066.991.991 0 01-.357.067c-.124 0-.274-.062-.45-.186a3.18 3.18 0 01-.55-.51 6.808 6.808 0 01-.642-.906 15.805 15.805 0 01-.742-1.377l-.211-.384a33.058 33.058 0 01-.543-1.08 20.93 20.93 0 01-.61-1.37.872.872 0 00-.317-.424l-.066-.04a.906.906 0 00-.212-.112 1.41 1.41 0 00-.305-.086l-3.627.027c-.371 0-.623.083-.755.251l-.053.08a.428.428 0 00-.04.212c0 .097.027.216.08.357a43.693 43.693 0 001.727 3.601c.623 1.156 1.163 2.088 1.622 2.794.46.706.927 1.372 1.404 1.999.476.627.792 1.028.946 1.205.155.177.276.309.365.397l.33.318c.212.212.523.465.934.76.41.297.865.588 1.364.875a7.4 7.4 0 001.74.701 6.019 6.019 0 001.934.22h1.523c.308-.027.542-.125.701-.292l.053-.067a.875.875 0 00.1-.244c.03-.11.045-.232.045-.364-.008-.38.02-.722.086-1.026.066-.305.142-.534.226-.689a1.695 1.695 0 01.51-.582.875.875 0 01.105-.047c.212-.07.461-.002.749.206.287.207.556.463.807.768.252.305.554.646.907 1.026s.662.662.927.847l.265.16c.176.105.406.202.688.29.282.089.53.11.742.067l3.389-.053c.335 0 .596-.056.781-.166.185-.11.296-.232.331-.364.036-.132.038-.282.007-.45a1.661 1.661 0 00-.093-.351z" fill="#fff"/></svg>