<svg width="46" height="46" fill="none" xmlns="http://www.w3.org/2000/svg"><circle cx="23" cy="23" r="23" fill="#29AD1C"/><path d="M35.88 22.22c0 6.683-5.46 12.1-12.195 12.1-2.138 0-4.146-.547-5.894-1.504L11.04 34.96l2.2-6.494a11.977 11.977 0 01-1.748-6.246c0-6.683 5.459-12.1 12.194-12.1 6.736.002 12.194 5.418 12.194 12.1zM23.684 12.05c-5.653 0-10.251 4.563-10.251 10.173 0 2.226.726 4.287 1.953 5.963l-1.28 3.777 3.938-1.251a10.25 10.25 0 005.64 1.681c5.653 0 10.253-4.562 10.253-10.172.002-5.608-4.6-10.171-10.253-10.171zm6.16 12.958c-.077-.123-.276-.197-.574-.346-.298-.15-1.77-.866-2.042-.963-.276-.1-.475-.15-.674.147-.197.297-.77.965-.946 1.164-.174.199-.349.224-.648.077-.298-.15-1.262-.462-2.404-1.472-.889-.787-1.49-1.756-1.662-2.054-.176-.296-.018-.457.13-.604.134-.134.299-.347.449-.52.15-.173.199-.296.299-.494.098-.199.048-.371-.025-.52-.075-.15-.672-1.608-.922-2.202-.249-.593-.498-.495-.673-.495-.174 0-.373-.024-.572-.024-.2 0-.523.072-.796.37-.273.297-1.046 1.014-1.046 2.473 0 1.461 1.07 2.87 1.22 3.068.15.196 2.068 3.29 5.107 4.477 3.04 1.187 3.04.79 3.587.74.55-.05 1.77-.716 2.017-1.408.25-.695.25-1.29.174-1.414z" fill="#fff"/></svg>